PathFileType	4	(X/Y/Z)	Walk5.trc
DataRate	CameraRate	NumFrames	NumMarkers	Units	OrigDataRate	OrigDataStartFrame	OrigNumFrames
200.000000	200.000000	7	61	mm	200.000000	388	487
Frame#	Times		LFHD		RFHD		CLAV		LASI		RASI		RACR1		RUA1		RFA1		RWRU		RCAR		LACR1		LUA1		LWRU		LCAR		RTH3		LTH1		LTH3		LTH2		LTH4		LLFC		LTB1		LTB2		LTB4		LFA1		RTB1		LToe		LTB3		STRN		RTB4		RWRR		RTB3		RMFC		RMT5		RTH2		LBHD		RMT1		RTB2		LElbow		RLFC		RMMAL		LMFC		RTH4		RToe		LWRR		T10		RElbow		RTH1		LPSI		RBack		RBHD		LMT5		RLMAL		RCAL		RPSI		LElbowM		LMMAL		RElbowM		LCAL		LLMAL		LMT1		C7
			X1	Y1	Z1	X2	Y2	Z2	X3	Y3	Z3	X4	Y4	Z4	X5	Y5	Z5	X6	Y6	Z6	X7	Y7	Z7	X8	Y8	Z8	X9	Y9	Z9	X10	Y10	Z10	X11	Y11	Z11	X12	Y12	Z12	X13	Y13	Z13	X14	Y14	Z14	X15	Y15	Z15	X16	Y16	Z16	X17	Y17	Z17	X18	Y18	Z18	X19	Y19	Z19	X20	Y20	Z20	X21	Y21	Z21	X22	Y22	Z22	X23	Y23	Z23	X24	Y24	Z24	X25	Y25	Z25	X26	Y26	Z26	X27	Y27	Z27	X28	Y28	Z28	X29	Y29	Z29	X30	Y30	Z30	X31	Y31	Z31	X32	Y32	Z32	X33	Y33	Z33	X34	Y34	Z34	X35	Y35	Z35	X36	Y36	Z36	X37	Y37	Z37	X38	Y38	Z38	X39	Y39	Z39	X40	Y40	Z40	X41	Y41	Z41	X42	Y42	Z42	X43	Y43	Z43	X44	Y44	Z44	X45	Y45	Z45	X46	Y46	Z46	X47	Y47	Z47	X48	Y48	Z48	X49	Y49	Z49	X50	Y50	Z50	X51	Y51	Z51	X52	Y52	Z52	X53	Y53	Z53	X54	Y54	Z54	X55	Y55	Z55	X56	Y56	Z56	X57	Y57	Z57	X58	Y58	Z58	X59	Y59	Z59	X60	Y60	Z60	X61	Y61	Z61

388	1.94	894.57	1584.8	-56.26	891.09	1588.4	43.248	863.43	1305.5	-7.1519	849.71	898.31	-114.15	837.26	912.72	135.92	804.66	1343.3	161.08	813.97	1174.9	217.13	923.15	912.64	264.35	1020.5	843.85	222.6	1042.9	770.59	257.92	776.02	1353.1	-155.5	709.56	1192.2	-208.31	592.45	798.12	-229.18	529.55	751.56	-246.8	698.09	589.47	159.61	838.55	731.12	-185.23	897.67	572.34	-152.83	917.94	676.3	-148.1	867.61	650.84	-170.91	951.96	451.79	-122.95	1019.7	375.85	-57.658	1025.9	284.96	-112.29	1038.5	291.57	-52.681	593.33	924.49	-233.27	633.26	339.26	93.137	1243.2	121.94	-48.89	1062.3	210.47	-46.395	886.24	1170.8	-3.4133	599.69	259.57	80.932	974.02	804.31	253.9	564.51	181.96	65.214	617.94	455.15	-0.96589	563.35	25.041	78.802	775.91	658.32	156.26	757.89	1509	-80.808	600.46	33.162	-5.7841	553.49	273.77	119.19	636.78	1051.2	-209.56	648.08	446.06	127.78	498.19	115.93	-9.1448	930.65	434.51	7.3495	723.82	666.87	181.41	654.21	24.144	25.442	531.3	824.07	-209.04	676.66	1195	5.6268	827.47	1008.5	253.77	751.48	745.95	205.64	671.11	949.53	-55.084	679.73	1282	79.791	754.73	1520.7	63.702	1167.5	79.607	-92.872	474.04	97.041	67.872	421.17	87.544	22.638	668.69	951.03	45.247	633.07	1038.3	-136.11	1057	109.54	-7.9705	791.49	996.02	183.23	1011.7	36.91	-41.656	1050.2	85.17	-87.548	1193	104.24	-20.263	752.31	1406.8	-3.3217
389	1.945	902.55	1583.8	-56.401	899.08	1587.3	43.11	871.85	1304.4	-7.3335	858.57	897.01	-113.87	845.21	911.67	136.26	812.92	1342.2	160.81	822.39	1173.9	216.87	932.06	912.23	264.04	1030	844.32	222.15	1052.9	771.14	257.31	784.52	1351.9	-155.79	717.02	1191.5	-208.45	596.59	798.39	-229.05	532.97	752.23	-245.85	704.22	589.15	159.73	847.78	730.15	-185.37	906.31	571.15	-152.87	926.57	675.11	-147.28	876.56	649.78	-171.07	960.42	450.56	-122.57	1028.9	375.54	-57.16	1036.7	284.67	-111.81	1049	291.51	-52.156	598.6	924.81	-232.97	637.39	339.02	93.461	1256.4	124.71	-47.684	1074	210.72	-45.802	894.72	1169.6	-3.523	602.85	259.76	81.323	983.76	804.36	253.32	566.74	182.54	65.633	623.9	455.02	-0.77675	563.49	25.093	78.865	782.5	657.61	156.66	766.03	1507.8	-80.963	600.51	33.098	-5.7412	556.78	274.55	119.47	643.32	1050.9	-209.27	653.35	445.78	127.99	499.49	117.36	-8.6485	938.16	432.66	7.5305	730.45	666.43	181.6	654.18	24.133	25.333	535.84	824.9	-208.39	685.07	1193.8	5.3249	835.76	1007.5	253.66	758.39	745.43	205.71	679.81	948.5	-55.994	688.07	1280.9	79.496	762.86	1519.4	63.574	1181.4	81.111	-91.955	475.21	98.738	68.394	422.18	89.961	23.229	677.02	949.86	44.318	639.98	1038	-135.84	1070.2	109.71	-7.3534	799.62	995	183.15	1025.9	36.298	-40.985	1063.9	85.163	-86.928	1206.5	106.06	-19.463	760.64	1405.6	-3.5842
390	1.95	910.55	1582.8	-56.544	907.08	1586.2	42.97	880.29	1303.2	-7.5558	867.46	895.73	-113.59	853.27	910.61	136.57	821.19	1341.2	160.49	830.78	1172.9	216.6	940.86	911.8	263.73	1039.3	844.72	221.73	1062.8	771.6	256.73	793.04	1350.7	-156.14	724.56	1190.9	-208.65	601.05	798.6	-229	536.76	752.79	-244.98	710.58	588.78	159.85	857.09	729.25	-185.45	915.05	570.07	-152.77	935.3	674.05	-146.39	885.61	648.82	-171.12	968.92	449.37	-122.16	1037.9	375.09	-56.658	1046.9	284.23	-111.28	1059	291.27	-51.604	604.11	925.07	-232.77	641.7	338.73	93.797	1268.6	126.79	-46.535	1085.1	210.75	-45.164	903.24	1168.5	-3.6644	606.15	259.93	81.734	993.35	804.35	252.77	569.09	183.13	66.089	630.02	454.85	-0.54663	563.65	25.143	78.945	789.27	656.88	157	774.2	1506.5	-81.15	600.56	33.037	-5.6907	560.26	275.33	119.8	649.99	1050.6	-209.07	658.86	445.45	128.21	500.86	118.83	-8.0831	945.79	430.96	7.7531	737.28	665.94	181.78	654.13	24.126	25.219	540.67	825.63	-207.87	693.53	1192.6	4.9988	843.98	1006.5	253.53	765.49	744.86	205.74	688.58	947.51	-56.854	696.43	1279.7	79.148	770.99	1518.1	63.415	1194.3	82.145	-91.019	476.48	100.5	68.989	423.27	92.495	23.9	685.45	948.73	43.434	647	1037.7	-135.67	1082.4	109.71	-6.6521	807.72	994	183.04	1039	35.684	-40.213	1076.5	85.007	-86.21	1218.9	107.32	-18.677	768.98	1404.4	-3.8848
391	1.955	918.57	1581.8	-56.689	915.07	1585.2	42.828	888.77	1302.1	-7.8199	876.37	894.47	-113.33	861.43	909.53	136.85	829.47	1340.1	160.14	839.14	1171.9	216.3	949.57	911.34	263.44	1048.5	845.04	221.35	1072.4	771.98	256.2	801.57	1349.5	-156.52	732.2	1190.2	-208.91	605.83	798.76	-229.04	540.91	753.25	-244.2	717.16	588.34	159.98	866.46	728.43	-185.48	923.91	569.12	-152.53	944.11	673.11	-145.47	894.76	647.95	-171.06	977.47	448.24	-121.72	1046.8	374.48	-56.156	1056.7	283.62	-110.71	1068.7	290.84	-51.025	609.85	925.26	-232.67	646.21	338.39	94.146	1279.8	128.11	-45.443	1095.5	210.53	-44.48	911.82	1167.4	-3.8387	609.61	260.08	82.167	1002.8	804.3	252.26	571.57	183.74	66.585	636.3	454.64	-0.27767	563.83	25.194	79.043	796.24	656.1	157.31	782.39	1505.2	-81.372	600.59	32.979	-5.6334	563.93	276.1	120.17	656.81	1050.3	-208.98	664.62	445.06	128.44	502.33	120.36	-7.4476	953.57	429.41	8.0164	744.3	665.39	181.95	654.05	24.121	25.099	545.8	826.27	-207.48	702.04	1191.4	4.6472	852.14	1005.5	253.38	772.77	744.26	205.75	697.41	946.55	-57.659	704.81	1278.5	78.746	779.13	1516.7	63.222	1205.9	82.664	-90.063	477.86	102.33	69.658	424.48	95.155	24.65	693.97	947.63	42.604	654.13	1037.4	-135.6	1093.6	109.52	-5.8648	815.81	993.02	182.9	1050.9	35.04	-39.344	1088	84.668	-85.392	1230.4	107.98	-17.895	777.33	1403.2	-4.2224
392	1.96	926.6	1580.8	-56.839	923.06	1584.2	42.683	897.27	1301	-8.1265	885.3	893.23	-113.08	869.69	908.44	137.1	837.77	1339.1	159.75	847.44	1171	215.99	958.18	910.85	263.16	1057.6	845.27	221	1081.9	772.27	255.72	810.13	1348.3	-156.95	739.94	1189.4	-209.22	610.93	798.85	-229.15	545.45	753.59	-243.52	723.98	587.83	160.11	875.88	727.69	-185.44	932.86	568.27	-152.16	953.02	672.29	-144.53	903.98	647.19	-170.89	986.07	447.15	-121.26	1055.6	373.71	-55.654	1066	282.84	-110.09	1078	290.21	-50.419	615.83	925.37	-232.68	650.92	337.99	94.513	1290	128.64	-44.404	1105.2	210.06	-43.75	920.45	1166.4	-4.047	613.24	260.2	82.622	1012.1	804.19	251.79	574.19	184.36	67.123	642.76	454.4	0.028356	564.04	25.249	79.156	803.41	655.28	157.56	790.6	1504	-81.631	600.61	32.924	-5.5701	567.81	276.87	120.58	663.78	1050	-208.99	670.64	444.6	128.68	503.92	121.93	-6.7411	961.49	428.01	8.3195	751.52	664.79	182.09	653.94	24.119	24.974	551.22	826.8	-207.23	710.6	1190.2	4.269	860.24	1004.5	253.2	780.23	743.61	205.73	706.3	945.62	-58.403	713.22	1277.4	78.289	787.27	1515.4	62.993	1216.5	82.639	-89.088	479.37	104.23	70.4	425.82	97.952	25.478	702.58	946.58	41.835	661.37	1037	-135.64	1103.9	109.1	-4.9925	823.88	992.05	182.72	1061.7	34.345	-38.387	1098.5	84.125	-84.476	1240.8	108	-17.105	785.71	1402	-4.5952
393	1.965	934.65	1579.9	-56.993	931.05	1583.2	42.533	905.81	1299.9	-8.4756	894.26	892.03	-112.86	878.06	907.34	137.3	846.08	1338	159.32	855.71	1170	215.66	966.69	910.35	262.89	1066.5	845.41	220.68	1091.2	772.47	255.29	818.71	1347.1	-157.42	747.78	1188.6	-209.59	616.36	798.87	-229.36	550.38	753.81	-242.96	731.04	587.24	160.25	885.33	727	-185.33	941.91	567.54	-151.67	962.01	671.57	-143.59	913.26	646.5	-170.61	994.74	446.12	-120.78	1064.2	372.79	-55.15	1074.9	281.86	-109.43	1086.9	289.38	-49.785	622.07	925.41	-232.8	655.85	337.54	94.9	1299.2	128.35	-43.408	1114.3	209.32	-42.974	929.13	1165.4	-4.2904	617.06	260.29	83.102	1021.2	804.02	251.36	576.97	184.98	67.706	649.39	454.1	0.37042	564.27	25.311	79.286	810.78	654.42	157.77	798.84	1502.8	-81.927	600.62	32.874	-5.5016	571.9	277.63	121.04	670.9	1049.6	-209.11	676.94	444.07	128.94	505.63	123.56	-5.9631	969.58	426.79	8.6613	758.95	664.12	182.22	653.8	24.119	24.843	556.95	827.21	-207.12	719.22	1189	3.8633	868.28	1003.6	253.01	787.87	742.91	205.69	715.24	944.72	-59.081	721.66	1276.2	77.779	795.42	1514.1	62.727	1226	82.057	-88.091	481.01	106.2	71.213	427.3	100.89	26.384	711.27	945.56	41.133	668.72	1036.6	-135.79	1113.3	108.44	-4.0386	831.93	991.1	182.51	1071.2	33.59	-37.357	1107.9	83.363	-83.47	1250.2	107.39	-16.294	794.1	1400.8	-5.0009
394	1.97	942.71	1579	-57.153	939.04	1582.2	42.377	914.38	1298.9	-8.8663	903.24	890.86	-112.66	886.53	906.22	137.46	854.4	1337	158.86	863.93	1169.1	215.31	975.11	909.81	262.64	1075.3	845.45	220.4	1100.4	772.56	254.92	827.33	1345.9	-157.93	755.74	1187.9	-210.02	622.13	798.81	-229.65	555.69	753.91	-242.53	738.35	586.57	160.39	894.8	726.38	-185.17	951.04	566.9	-151.07	971.07	670.96	-142.66	922.58	645.9	-170.24	1003.5	445.16	-120.28	1072.7	371.71	-54.641	1083.3	280.71	-108.73	1095.4	288.34	-49.12	628.56	925.36	-233.02	661.01	337.02	95.311	1307.6	127.25	-42.44	1122.8	208.32	-42.15	937.85	1164.4	-4.5699	621.06	260.34	83.61	1030.2	803.8	250.97	579.91	185.62	68.339	656.23	453.75	0.74843	564.52	25.385	79.432	818.36	653.52	157.94	807.1	1501.6	-82.261	600.63	32.828	-5.4286	576.22	278.38	121.54	678.19	1049.1	-209.34	683.53	443.47	129.22	507.49	125.24	-5.1135	977.83	425.73	9.0408	766.58	663.39	182.33	653.64	24.119	24.706	562.98	827.52	-207.15	727.89	1187.8	3.4294	876.27	1002.6	252.79	795.7	742.16	205.62	724.23	943.86	-59.689	730.12	1275.1	77.217	803.57	1512.8	62.419	1234.3	80.918	-87.073	482.8	108.25	72.097	428.96	103.98	27.367	720.04	944.59	40.506	676.2	1036.1	-136.05	1121.7	107.55	-3.009	839.96	990.16	182.28	1079.6	32.776	-36.274	1116.3	82.383	-82.384	1258.7	106.14	-15.447	802.51	1399.7	-5.4372
